<svg width="7" height="12" viewBox="0 0 7 12" fill="none" xmlns="http://www.w3.org/2000/svg">
<path d="M0.293893 0.295964C0.489822 0.0986544 0.739186 7.46595e-08 1.04198 7.10486e-08C1.34478 6.74378e-08 1.59415 0.0986543 1.79008 0.295964L6.70611 5.24664C6.81298 5.35426 6.8885 5.47085 6.93267 5.59641C6.97685 5.72197 6.99929 5.8565 7 6C7 6.1435 6.97328 6.28269 6.91985 6.41758C6.86641 6.55247 6.79517 6.66439 6.70611 6.75336L1.79008 11.704C1.59415 11.9013 1.34478 12 1.04198 12C0.739186 12 0.489823 11.9013 0.293893 11.704C0.0979649 11.5067 1.34222e-07 11.2556 1.30585e-07 10.9507C1.26949e-07 10.6457 0.0979649 10.3946 0.293893 10.1973L4.46183 6L0.293893 1.80269C0.0979648 1.60538 1.61494e-08 1.35426 1.25131e-08 1.04933C8.87682e-09 0.744395 0.0979648 0.493273 0.293893 0.295964Z" fill="#212121"/>
</svg>
