<svg width="29" height="29" viewBox="0 0 29 29" fill="none" xmlns="http://www.w3.org/2000/svg">
<circle cx="14.3877" cy="14.1831" r="14" fill="white"/>
<path d="M15.2773 5.52841C15.9089 5.52598 16.5406 5.53233 17.172 5.54745L17.3399 5.55351C17.5338 5.56043 17.7251 5.56909 17.9562 5.57948C18.8771 5.62275 19.5055 5.76817 20.0569 5.98196C20.6282 6.20181 21.1094 6.49956 21.5907 6.98081C22.0307 7.41325 22.3712 7.93634 22.5887 8.51371C22.8024 9.06507 22.9479 9.69433 22.9911 10.6153C23.0015 10.8455 23.0102 11.0377 23.0171 11.2316L23.0223 11.3995C23.0377 12.0306 23.0443 12.662 23.0422 13.2933L23.0431 13.939V15.0729C23.0452 15.7045 23.0386 16.3362 23.0232 16.9676L23.018 17.1355C23.011 17.3294 23.0024 17.5207 22.992 17.7518C22.9487 18.6727 22.8016 19.3011 22.5887 19.8525C22.372 20.4305 22.0313 20.954 21.5907 21.3863C21.1579 21.8262 20.6345 22.1668 20.0569 22.3842C19.5055 22.598 18.8771 22.7435 17.9562 22.7867C17.7251 22.7971 17.5338 22.8058 17.3399 22.8127L17.172 22.8179C16.5406 22.8333 15.9089 22.8399 15.2773 22.8378L14.6316 22.8387H13.4986C12.867 22.8408 12.2353 22.8342 11.6039 22.8188L11.436 22.8136C11.2305 22.8061 11.0251 22.7975 10.8197 22.7876C9.89873 22.7443 9.27034 22.5972 8.71811 22.3842C8.14051 22.1673 7.61733 21.8267 7.18521 21.3863C6.74468 20.9537 6.40381 20.4303 6.18636 19.8525C5.97257 19.3011 5.82716 18.6727 5.78388 17.7518C5.77424 17.5464 5.76558 17.341 5.75791 17.1355L5.75358 16.9676C5.73763 16.3362 5.73041 15.7045 5.73194 15.0729V13.2933C5.72953 12.662 5.73588 12.0306 5.75099 11.3995L5.75705 11.2316C5.76397 11.0377 5.77263 10.8455 5.78301 10.6153C5.82629 9.69346 5.9717 9.06594 6.1855 8.51371C6.40307 7.93606 6.74461 7.41311 7.18608 6.98168C7.6179 6.54089 8.14075 6.19971 8.71811 5.98196C9.27034 5.76817 9.89787 5.62275 10.8197 5.57948L11.436 5.55351L11.6039 5.54918C12.235 5.53323 12.8664 5.52602 13.4977 5.52754L15.2773 5.52841ZM14.3875 9.85619C13.8141 9.84808 13.2448 9.95402 12.7126 10.1678C12.1805 10.3817 11.6962 10.6991 11.2878 11.1018C10.8794 11.5044 10.5552 11.9842 10.3338 12.5132C10.1125 13.0423 9.99852 13.6101 9.99852 14.1835C9.99852 14.757 10.1125 15.3248 10.3338 15.8538C10.5552 16.3829 10.8794 16.8627 11.2878 17.2653C11.6962 17.6679 12.1805 17.9854 12.7126 18.1992C13.2448 18.4131 13.8141 18.519 14.3875 18.5109C15.5353 18.5109 16.6361 18.0549 17.4477 17.2433C18.2593 16.4317 18.7153 15.3309 18.7153 14.1831C18.7153 13.0353 18.2593 11.9345 17.4477 11.1229C16.6361 10.3113 15.5353 9.85619 14.3875 9.85619ZM14.3875 11.5873C14.7324 11.5809 15.0752 11.6434 15.3957 11.771C15.7162 11.8986 16.0081 12.0888 16.2543 12.3304C16.5005 12.5721 16.6961 12.8604 16.8296 13.1785C16.9632 13.4966 17.032 13.8381 17.032 14.1831C17.0321 14.5281 16.9634 14.8696 16.83 15.1878C16.6965 15.5059 16.5011 15.7943 16.2549 16.036C16.0088 16.2778 15.717 16.4681 15.3965 16.5958C15.076 16.7235 14.7333 16.786 14.3884 16.7798C13.6997 16.7798 13.0392 16.5062 12.5523 16.0192C12.0653 15.5323 11.7917 14.8718 11.7917 14.1831C11.7917 13.4944 12.0653 12.834 12.5523 12.347C13.0392 11.86 13.6997 11.5864 14.3884 11.5864L14.3875 11.5873ZM18.9317 8.55786C18.6524 8.56903 18.3884 8.68782 18.1947 8.88934C18.0011 9.09086 17.893 9.35948 17.893 9.63893C17.893 9.91839 18.0011 10.187 18.1947 10.3885C18.3884 10.5901 18.6524 10.7088 18.9317 10.72C19.2186 10.72 19.4938 10.606 19.6967 10.4031C19.8996 10.2002 20.0136 9.92502 20.0136 9.63807C20.0136 9.35112 19.8996 9.07592 19.6967 8.87302C19.4938 8.67011 19.2186 8.55612 18.9317 8.55612V8.55786Z" fill="url(#paint0_linear_267_1737)"/>
<defs>
<linearGradient id="paint0_linear_267_1737" x1="5.12381" y1="22.8391" x2="23.0435" y2="5.52734" gradientUnits="userSpaceOnUse">
<stop stop-color="#FFC300"/>
<stop offset="0.484375" stop-color="#FF005F"/>
<stop offset="1" stop-color="#8400FF"/>
</linearGradient>
</defs>
</svg>
