<svg width="21" height="17" viewBox="0 0 21 17" fill="none" xmlns="http://www.w3.org/2000/svg">
<path d="M18.5156 0.341797H2.51562C1.41562 0.341797 0.515625 1.2418 0.515625 2.3418V14.3418C0.515625 15.4418 1.41562 16.3418 2.51562 16.3418H18.5156C19.6156 16.3418 20.5156 15.4418 20.5156 14.3418V2.3418C20.5156 1.2418 19.6156 0.341797 18.5156 0.341797ZM18.1156 4.5918L11.5756 8.6818C10.9256 9.0918 10.1056 9.0918 9.45562 8.6818L2.91563 4.5918C2.81535 4.53551 2.72754 4.45946 2.65751 4.36825C2.58748 4.27704 2.53669 4.17257 2.5082 4.06117C2.47971 3.94976 2.47413 3.83373 2.49178 3.7201C2.50944 3.60648 2.54996 3.49761 2.61091 3.4001C2.67185 3.30259 2.75195 3.21845 2.84635 3.15279C2.94075 3.08713 3.0475 3.04131 3.16012 3.0181C3.27274 2.99488 3.38891 2.99476 3.50158 3.01775C3.61425 3.04073 3.72109 3.08633 3.81563 3.1518L10.5156 7.3418L17.2156 3.1518C17.3102 3.08633 17.417 3.04073 17.5297 3.01775C17.6423 2.99476 17.7585 2.99488 17.8711 3.0181C17.9838 3.04131 18.0905 3.08713 18.1849 3.15279C18.2793 3.21845 18.3594 3.30259 18.4203 3.4001C18.4813 3.49761 18.5218 3.60648 18.5395 3.7201C18.5571 3.83373 18.5515 3.94976 18.5231 4.06117C18.4946 4.17257 18.4438 4.27704 18.3737 4.36825C18.3037 4.45946 18.2159 4.53551 18.1156 4.5918Z" fill="black"/>
<path d="M18.5156 0.341797H2.51562C1.41562 0.341797 0.515625 1.2418 0.515625 2.3418V14.3418C0.515625 15.4418 1.41562 16.3418 2.51562 16.3418H18.5156C19.6156 16.3418 20.5156 15.4418 20.5156 14.3418V2.3418C20.5156 1.2418 19.6156 0.341797 18.5156 0.341797ZM18.1156 4.5918L11.5756 8.6818C10.9256 9.0918 10.1056 9.0918 9.45562 8.6818L2.91563 4.5918C2.81535 4.53551 2.72754 4.45946 2.65751 4.36825C2.58748 4.27704 2.53669 4.17257 2.5082 4.06117C2.47971 3.94976 2.47413 3.83373 2.49178 3.7201C2.50944 3.60648 2.54996 3.49761 2.61091 3.4001C2.67185 3.30259 2.75195 3.21845 2.84635 3.15279C2.94075 3.08713 3.0475 3.04131 3.16012 3.0181C3.27274 2.99488 3.38891 2.99476 3.50158 3.01775C3.61425 3.04073 3.72109 3.08633 3.81563 3.1518L10.5156 7.3418L17.2156 3.1518C17.3102 3.08633 17.417 3.04073 17.5297 3.01775C17.6423 2.99476 17.7585 2.99488 17.8711 3.0181C17.9838 3.04131 18.0905 3.08713 18.1849 3.15279C18.2793 3.21845 18.3594 3.30259 18.4203 3.4001C18.4813 3.49761 18.5218 3.60648 18.5395 3.7201C18.5571 3.83373 18.5515 3.94976 18.5231 4.06117C18.4946 4.17257 18.4438 4.27704 18.3737 4.36825C18.3037 4.45946 18.2159 4.53551 18.1156 4.5918Z" fill="url(#paint0_linear_264_671)"/>
<defs>
<linearGradient id="paint0_linear_264_671" x1="10.5156" y1="0.341797" x2="10.5156" y2="16.3418" gradientUnits="userSpaceOnUse">
<stop stop-color="#FF455B"/>
<stop offset="1" stop-color="#D51E34"/>
</linearGradient>
</defs>
</svg>
