<svg width="21" height="21" viewBox="0 0 21 21" fill="none" xmlns="http://www.w3.org/2000/svg">
<path fill-rule="evenodd" clip-rule="evenodd" d="M5.02677 4.6743C4.51043 5.18376 4.09996 5.79034 3.81901 6.45909C3.53806 7.12784 3.39217 7.84556 3.38974 8.57093C3.38731 9.2963 3.52839 10.015 3.80485 10.6856C4.08132 11.3562 4.48771 11.9655 5.00062 12.4784C5.51354 12.9914 6.12285 13.3977 6.79346 13.6742C7.46408 13.9507 8.18277 14.0918 8.90814 14.0893C9.6335 14.0869 10.3512 13.941 11.02 13.6601C11.6887 13.3791 12.2953 12.9686 12.8048 12.4523C13.8248 11.4185 14.3945 10.0232 14.3897 8.57093C14.3848 7.11863 13.8057 5.7272 12.7788 4.70027C11.7519 3.67333 10.3604 3.09425 8.90814 3.08939C7.45584 3.08452 6.06056 3.65427 5.02677 4.6743ZM11.3908 11.0383C10.7344 11.6947 9.84407 12.0635 8.91577 12.0635C7.98746 12.0635 7.09718 11.6947 6.44077 11.0383C5.78436 10.3819 5.41559 9.4916 5.41559 8.5633C5.41559 7.63499 5.78436 6.74471 6.44077 6.0883C7.09718 5.43189 7.98746 5.06312 8.91577 5.06312C9.84407 5.06312 10.7344 5.43189 11.3908 6.0883C12.0472 6.74471 12.4159 7.63499 12.4159 8.5633C12.4159 9.4916 12.0472 10.3819 11.3908 11.0383Z" fill="white"/>
<path d="M11.7437 13.5134C11.6044 13.3741 11.4939 13.2086 11.4185 13.0266C11.3431 12.8445 11.3043 12.6494 11.3043 12.4524C11.3043 12.2553 11.3431 12.0602 11.4185 11.8782C11.4939 11.6961 11.6044 11.5307 11.7437 11.3914C11.8831 11.2521 12.0485 11.1415 12.2305 11.0661C12.4126 10.9907 12.6077 10.9519 12.8047 10.9519C13.0018 10.9519 13.1969 10.9907 13.379 11.0661C13.561 11.1415 13.7264 11.2521 13.8657 11.3914L17.4007 14.9274C17.544 15.0658 17.6583 15.2313 17.7369 15.4143C17.8155 15.5973 17.8569 15.7941 17.8586 15.9933C17.8603 16.1925 17.8224 16.39 17.747 16.5743C17.6716 16.7587 17.5602 16.9261 17.4193 17.067C17.2785 17.2078 17.111 17.3192 16.9267 17.3946C16.7423 17.47 16.5448 17.508 16.3456 17.5063C16.1465 17.5045 15.9496 17.4632 15.7666 17.3845C15.5836 17.3059 15.4181 17.1917 15.2797 17.0484L11.7437 13.5134Z" fill="white"/>
</svg>
