<svg width="12" height="7" viewBox="0 0 12 7" fill="none" xmlns="http://www.w3.org/2000/svg">
<path d="M11.4468 0.445703C11.6301 0.629037 11.7218 0.86237 11.7218 1.1457C11.7218 1.42904 11.6301 1.66237 11.4468 1.8457L6.8468 6.4457C6.7468 6.5457 6.63847 6.61637 6.5218 6.6577C6.40514 6.69904 6.28014 6.72004 6.1468 6.7207C6.01347 6.7207 5.88414 6.6957 5.7588 6.6457C5.63347 6.5957 5.52947 6.52904 5.4468 6.4457L0.846803 1.8457C0.66347 1.66237 0.571802 1.42904 0.571802 1.1457C0.571802 0.862369 0.66347 0.629036 0.846803 0.445703C1.03014 0.262369 1.26347 0.170702 1.5468 0.170702C1.83014 0.170702 2.06347 0.262369 2.2468 0.445703L6.1468 4.3457L10.0468 0.445703C10.2301 0.26237 10.4635 0.170703 10.7468 0.170703C11.0301 0.170703 11.2635 0.26237 11.4468 0.445703Z" fill="white"/>
</svg>
