<svg width="28" height="28" viewBox="0 0 28 28" fill="none" xmlns="http://www.w3.org/2000/svg">
<circle cx="14" cy="14" r="14" fill="white"/>
<path d="M19.7011 8.14775L5.52585 13.4517C4.95541 13.6987 4.76248 14.1933 5.38798 14.4618L9.02454 15.5831L17.8173 10.3104C18.2974 9.97942 18.7889 10.0677 18.3659 10.4318L10.8142 17.0664L10.5769 19.8741C10.7967 20.3076 11.199 20.3096 11.4556 20.0941L13.5449 18.1759L17.1232 20.7758C17.9543 21.2532 18.4065 20.9451 18.5853 20.0701L20.9323 9.28673C21.176 8.20965 20.7605 7.73508 19.7011 8.14775Z" fill="black"/>
<path d="M19.7011 8.14775L5.52585 13.4517C4.95541 13.6987 4.76248 14.1933 5.38798 14.4618L9.02454 15.5831L17.8173 10.3104C18.2974 9.97942 18.7889 10.0677 18.3659 10.4318L10.8142 17.0664L10.5769 19.8741C10.7967 20.3076 11.199 20.3096 11.4556 20.0941L13.5449 18.1759L17.1232 20.7758C17.9543 21.2532 18.4065 20.9451 18.5853 20.0701L20.9323 9.28673C21.176 8.20965 20.7605 7.73508 19.7011 8.14775Z" fill="url(#paint0_linear_1_30)"/>
<defs>
<linearGradient id="paint0_linear_1_30" x1="5" y1="8" x2="16.1715" y2="24.3077" gradientUnits="userSpaceOnUse">
<stop stop-color="#49B3FF"/>
<stop offset="1" stop-color="#005ECD"/>
</linearGradient>
</defs>
</svg>
