<svg width="28" height="28" viewBox="0 0 28 28" fill="none" xmlns="http://www.w3.org/2000/svg">
<circle cx="14" cy="14" r="14" fill="white"/>
<path fill-rule="evenodd" clip-rule="evenodd" d="M18.066 5.43799C15.3881 4.854 12.6111 4.854 9.93325 5.43799L9.64471 5.50027C8.89147 5.66457 8.19965 6.02938 7.64611 6.55417C7.09258 7.07896 6.699 7.74318 6.50909 8.47305C5.8303 11.0826 5.8303 13.8161 6.50909 16.4256C6.6902 17.1217 7.05673 17.7587 7.57152 18.272C8.08632 18.7854 8.73108 19.1568 9.44044 19.3486L9.83622 21.6538C9.84886 21.727 9.88137 21.7955 9.93039 21.8523C9.9794 21.9091 10.0431 21.952 10.1149 21.9766C10.1867 22.0011 10.2639 22.0065 10.3386 21.9921C10.4132 21.9777 10.4825 21.944 10.5393 21.8946L12.8637 19.8659C14.6087 19.9698 16.3599 19.8337 18.066 19.4615L18.3553 19.3993C19.1086 19.235 19.8004 18.8702 20.3539 18.3454C20.9075 17.8206 21.3011 17.1564 21.491 16.4265C22.1697 13.817 22.1697 11.0834 21.491 8.47388C21.301 7.7439 20.9073 7.07961 20.3536 6.55481C19.7999 6.03001 19.1079 5.66527 18.3545 5.5011L18.066 5.43799ZM10.6516 8.40579C10.4934 8.38333 10.3321 8.41439 10.1946 8.49381H10.1826C9.86346 8.6765 9.57577 8.90651 9.33064 9.17722C9.12637 9.40723 9.01572 9.63974 8.98678 9.86395C8.96976 9.99681 8.98167 10.1313 9.02168 10.2584L9.037 10.2667C9.26681 10.9252 9.56641 11.5588 9.9324 12.155C10.4043 12.9924 10.9851 13.7669 11.6602 14.4593L11.6807 14.4875L11.713 14.5108L11.7326 14.5332L11.7564 14.5531C12.4686 15.2138 13.2643 15.7831 14.1243 16.2471C15.1074 16.7694 15.704 17.0161 16.0624 17.119V17.124C16.167 17.1556 16.2624 17.1697 16.3586 17.1697C16.6637 17.1477 16.9526 17.0266 17.1791 16.8259C17.4557 16.5867 17.6897 16.3052 17.8719 15.9922V15.9864C18.043 15.6708 17.9851 15.3736 17.7383 15.1718C17.2425 14.7491 16.7064 14.3737 16.1373 14.0507C15.7559 13.849 15.3687 13.971 15.2121 14.1753L14.8776 14.5872C14.7056 14.7915 14.3941 14.7632 14.3941 14.7632L14.3856 14.7682C12.0611 14.1894 11.4406 11.8934 11.4406 11.8934C11.4406 11.8934 11.4117 11.5812 11.627 11.4217L12.0458 11.0929C12.2467 10.9335 12.3863 10.5565 12.1709 10.1845C11.842 9.62875 11.458 9.10587 11.0244 8.62335C10.9298 8.50979 10.7972 8.43245 10.6499 8.40496L10.6516 8.40579ZM14.5788 7.40767C14.4659 7.40767 14.3577 7.45141 14.2779 7.52927C14.1981 7.60714 14.1532 7.71274 14.1532 7.82286C14.1532 7.93298 14.1981 8.03858 14.2779 8.11645C14.3577 8.19431 14.4659 8.23805 14.5788 8.23805C15.6555 8.23805 16.5492 8.581 17.2565 9.23867C17.62 9.59822 17.9034 10.0242 18.0889 10.4909C18.2753 10.9584 18.3604 11.4575 18.3383 11.9573C18.336 12.0119 18.3447 12.0663 18.3639 12.1176C18.3831 12.1688 18.4125 12.2159 18.4503 12.256C18.5268 12.3372 18.6331 12.3854 18.746 12.39C18.8589 12.3946 18.969 12.3553 19.0522 12.2807C19.1353 12.2061 19.1847 12.1023 19.1895 11.9922C19.2159 11.3773 19.1112 10.7637 18.8822 10.1903C18.6522 9.61411 18.3034 9.09013 17.8574 8.65075L17.8489 8.64245C16.9714 7.82452 15.8606 7.40767 14.5788 7.40767ZM14.5499 8.77282C14.437 8.77282 14.3288 8.81656 14.2489 8.89443C14.1691 8.97229 14.1243 9.0779 14.1243 9.18801C14.1243 9.29813 14.1691 9.40373 14.2489 9.4816C14.3288 9.55946 14.437 9.60321 14.5499 9.60321H14.5643C15.3406 9.65718 15.9057 9.90962 16.3015 10.324C16.7075 10.7508 16.9178 11.2814 16.9016 11.9374C16.899 12.0475 16.9413 12.1541 17.0193 12.2338C17.0973 12.3135 17.2045 12.3596 17.3174 12.3622C17.4302 12.3647 17.5395 12.3234 17.6212 12.2473C17.7028 12.1712 17.7501 12.0666 17.7527 11.9565C17.7732 11.0954 17.4889 10.3522 16.9254 9.75932V9.75766C16.3492 9.1548 15.5585 8.83593 14.6069 8.77365L14.5924 8.77199L14.5499 8.77282ZM14.5337 10.1637C14.4767 10.1588 14.4194 10.1652 14.365 10.1824C14.3106 10.1996 14.2603 10.2273 14.2172 10.2639C14.174 10.3005 14.1388 10.3452 14.1138 10.3953C14.0887 10.4454 14.0743 10.5 14.0713 10.5557C14.0683 10.6114 14.0769 10.6671 14.0965 10.7195C14.116 10.7719 14.1463 10.8199 14.1853 10.8607C14.2243 10.9015 14.2714 10.9341 14.3236 10.9568C14.3759 10.9794 14.4323 10.9915 14.4894 10.9924C14.8452 11.0107 15.0725 11.1153 15.2155 11.2557C15.3593 11.3968 15.4666 11.6235 15.4861 11.9781C15.4872 12.0338 15.4997 12.0888 15.523 12.1397C15.5463 12.1905 15.5799 12.2363 15.6217 12.2743C15.6635 12.3123 15.7127 12.3416 15.7664 12.3607C15.8201 12.3797 15.8772 12.3879 15.9342 12.385C15.9912 12.382 16.0471 12.3679 16.0984 12.3435C16.1497 12.319 16.1955 12.2847 16.2329 12.2426C16.2704 12.2006 16.2988 12.1516 16.3164 12.0985C16.3341 12.0455 16.3406 11.9896 16.3356 11.9341C16.3083 11.4359 16.1483 10.9958 15.8206 10.6719C15.4912 10.3481 15.0427 10.1903 14.5337 10.1637Z" fill="url(#paint0_linear_1_34)"/>
<defs>
<linearGradient id="paint0_linear_1_34" x1="6" y1="5" x2="21.5723" y2="22.3832" gradientUnits="userSpaceOnUse">
<stop stop-color="#8F00FF"/>
<stop offset="1" stop-color="#4C0088"/>
</linearGradient>
</defs>
</svg>
