<svg width="17" height="16" viewBox="0 0 17 16" fill="none" xmlns="http://www.w3.org/2000/svg">
<path d="M5.26973 0.920826C5.33789 0.807048 5.44846 0.725007 5.57711 0.692751C5.70576 0.660494 5.84195 0.680665 5.95573 0.748826C6.06951 0.816986 6.15155 0.927554 6.18381 1.0562C6.21606 1.18485 6.19589 1.32105 6.12773 1.43483L3.58173 5.67783H12.8157L10.2687 1.43483C10.2006 1.32105 10.1804 1.18485 10.2127 1.0562C10.2449 0.927554 10.327 0.816986 10.4407 0.748826C10.5545 0.680665 10.6907 0.660494 10.8194 0.692751C10.948 0.725007 11.0586 0.807048 11.1267 0.920826L13.9817 5.67783H15.6987C15.8313 5.67783 15.9585 5.7305 16.0523 5.82427C16.1461 5.91804 16.1987 6.04522 16.1987 6.17783V8.17783C16.1987 8.31043 16.1461 8.43761 16.0523 8.53138C15.9585 8.62515 15.8313 8.67783 15.6987 8.67783H15.1987V13.6778C15.1987 14.2083 14.988 14.717 14.6129 15.092C14.2379 15.4671 13.7292 15.6778 13.1987 15.6778H3.19873C2.6683 15.6778 2.15959 15.4671 1.78452 15.092C1.40944 14.717 1.19873 14.2083 1.19873 13.6778V8.67783H0.69873C0.566122 8.67783 0.438945 8.62515 0.345177 8.53138C0.251409 8.43761 0.19873 8.31043 0.19873 8.17783V6.17783C0.19873 6.04522 0.251409 5.91804 0.345177 5.82427C0.438945 5.7305 0.566122 5.67783 0.69873 5.67783H2.41573L5.26973 0.920826ZM3.69873 10.1778C3.69873 10.0452 3.64605 9.91804 3.55228 9.82427C3.45852 9.7305 3.33134 9.67783 3.19873 9.67783C3.06612 9.67783 2.93895 9.7305 2.84518 9.82427C2.75141 9.91804 2.69873 10.0452 2.69873 10.1778V13.1778C2.69873 13.3104 2.75141 13.4376 2.84518 13.5314C2.93895 13.6251 3.06612 13.6778 3.19873 13.6778C3.33134 13.6778 3.45852 13.6251 3.55228 13.5314C3.64605 13.4376 3.69873 13.3104 3.69873 13.1778V10.1778ZM6.19873 10.1778C6.19873 10.0452 6.14605 9.91804 6.05228 9.82427C5.95852 9.7305 5.83134 9.67783 5.69873 9.67783C5.56612 9.67783 5.43895 9.7305 5.34518 9.82427C5.25141 9.91804 5.19873 10.0452 5.19873 10.1778V13.1778C5.19873 13.3104 5.25141 13.4376 5.34518 13.5314C5.43895 13.6251 5.56612 13.6778 5.69873 13.6778C5.83134 13.6778 5.95852 13.6251 6.05228 13.5314C6.14605 13.4376 6.19873 13.3104 6.19873 13.1778V10.1778ZM8.69873 10.1778C8.69873 10.0452 8.64605 9.91804 8.55228 9.82427C8.45852 9.7305 8.33134 9.67783 8.19873 9.67783C8.06612 9.67783 7.93895 9.7305 7.84518 9.82427C7.75141 9.91804 7.69873 10.0452 7.69873 10.1778V13.1778C7.69873 13.3104 7.75141 13.4376 7.84518 13.5314C7.93895 13.6251 8.06612 13.6778 8.19873 13.6778C8.33134 13.6778 8.45852 13.6251 8.55228 13.5314C8.64605 13.4376 8.69873 13.3104 8.69873 13.1778V10.1778ZM11.1987 10.1778C11.1987 10.0452 11.1461 9.91804 11.0523 9.82427C10.9585 9.7305 10.8313 9.67783 10.6987 9.67783C10.5661 9.67783 10.4389 9.7305 10.3452 9.82427C10.2514 9.91804 10.1987 10.0452 10.1987 10.1778V13.1778C10.1987 13.3104 10.2514 13.4376 10.3452 13.5314C10.4389 13.6251 10.5661 13.6778 10.6987 13.6778C10.8313 13.6778 10.9585 13.6251 11.0523 13.5314C11.1461 13.4376 11.1987 13.3104 11.1987 13.1778V10.1778ZM13.6987 10.1778C13.6987 10.0452 13.6461 9.91804 13.5523 9.82427C13.4585 9.7305 13.3313 9.67783 13.1987 9.67783C13.0661 9.67783 12.9389 9.7305 12.8452 9.82427C12.7514 9.91804 12.6987 10.0452 12.6987 10.1778V13.1778C12.6987 13.3104 12.7514 13.4376 12.8452 13.5314C12.9389 13.6251 13.0661 13.6778 13.1987 13.6778C13.3313 13.6778 13.4585 13.6251 13.5523 13.5314C13.6461 13.4376 13.6987 13.3104 13.6987 13.1778V10.1778Z" fill="#212121"/>
</svg>
