<svg width="44" height="37" viewBox="0 0 44 37" fill="none" xmlns="http://www.w3.org/2000/svg">
<g filter="url(#filter0_i_264_619)">
<rect x="43.1181" y="36.2085" width="42.7344" height="36.0215" rx="5" transform="rotate(-180 43.1181 36.2085)" fill="#892727"/>
<rect x="43.1181" y="36.2085" width="42.7344" height="36.0215" rx="5" transform="rotate(-180 43.1181 36.2085)" fill="url(#paint0_linear_264_619)"/>
</g>
<path d="M29.7333 19.4321C30.4151 19.4321 30.9677 18.8795 30.9677 18.1978C30.9677 17.516 30.4151 16.9634 29.7333 16.9634L29.7333 19.4321ZM12.8954 17.3249C12.4134 17.807 12.4134 18.5885 12.8954 19.0706L20.7509 26.9261C21.2329 27.4081 22.0145 27.4081 22.4966 26.9261C22.9786 26.444 22.9786 25.6624 22.4966 25.1804L15.5139 18.1978L22.4966 11.2151C22.9786 10.7331 22.9786 9.9515 22.4966 9.46945C22.0145 8.9874 21.2329 8.9874 20.7509 9.46945L12.8954 17.3249ZM29.7333 16.9634L13.7682 16.9634L13.7682 19.4321L29.7333 19.4321L29.7333 16.9634Z" fill="white"/>
<defs>
<filter id="filter0_i_264_619" x="0.383728" y="0.187012" width="42.7344" height="36.0215" filterUnits="userSpaceOnUse" color-interpolation-filters="sRGB">
<feFlood flood-opacity="0" result="BackgroundImageFix"/>
<feBlend mode="normal" in="SourceGraphic" in2="BackgroundImageFix" result="shape"/>
<feColorMatrix in="SourceAlpha" type="matrix" values="0 0 0 0 0 0 0 0 0 0 0 0 0 0 0 0 0 0 127 0" result="hardAlpha"/>
<feOffset/>
<feGaussianBlur stdDeviation="2"/>
<feComposite in2="hardAlpha" operator="arithmetic" k2="-1" k3="1"/>
<feColorMatrix type="matrix" values="0 0 0 0 1 0 0 0 0 1 0 0 0 0 1 0 0 0 0.5 0"/>
<feBlend mode="normal" in2="shape" result="effect1_innerShadow_264_619"/>
</filter>
<linearGradient id="paint0_linear_264_619" x1="43.1181" y1="36.2085" x2="85.8525" y2="72.23" gradientUnits="userSpaceOnUse">
<stop stop-color="#FF455B"/>
<stop offset="1" stop-color="#D51E34"/>
</linearGradient>
</defs>
</svg>
