<svg width="274" height="351" viewBox="0 0 274 351" fill="none" xmlns="http://www.w3.org/2000/svg">
<path d="M272.869 17.424L273.001 17.4494V333.693C272.959 333.701 272.914 333.709 272.869 333.718C272.25 333.837 271.336 334.011 270.152 334.233C267.785 334.678 264.342 335.312 260.042 336.074C251.442 337.597 239.415 339.628 225.707 341.659C198.279 345.724 164.173 349.78 137.338 349.78C110.503 349.78 76.3972 345.724 48.9685 341.659C35.261 339.628 23.2337 337.597 14.6337 336.074C10.3338 335.312 6.891 334.678 4.52376 334.233C3.34015 334.011 2.42545 333.837 1.80695 333.718C1.76129 333.709 1.71723 333.701 1.6748 333.693V17.4494C1.71723 17.4412 1.76129 17.4327 1.80695 17.424C2.42545 17.3051 3.34015 17.1307 4.52376 16.9086C6.891 16.4645 10.3338 15.8299 14.6337 15.0683C23.2337 13.5449 35.261 11.5137 48.9685 9.48263C76.3972 5.41839 110.503 1.3623 137.338 1.3623C164.173 1.3623 198.279 5.41839 225.707 9.48263C239.415 11.5137 251.442 13.5449 260.042 15.0683C264.342 15.8299 267.785 16.4645 270.152 16.9086C271.336 17.1307 272.25 17.3051 272.869 17.424Z" stroke="#212121" stroke-width="2"/>
</svg>
