<svg width="13" height="7" viewBox="0 0 13 7" fill="none" xmlns="http://www.w3.org/2000/svg">
<path d="M11.8705 0.650049C12.0538 0.833383 12.1455 1.06672 12.1455 1.35005C12.1455 1.63338 12.0538 1.86672 11.8705 2.05005L7.27051 6.65005C7.17051 6.75005 7.06217 6.82072 6.94551 6.86205C6.82884 6.90338 6.70384 6.92438 6.57051 6.92505C6.43717 6.92505 6.30784 6.90005 6.18251 6.85005C6.05718 6.80005 5.95318 6.73338 5.87051 6.65005L1.27051 2.05005C1.08718 1.86671 0.995508 1.63338 0.995508 1.35005C0.995508 1.06671 1.08718 0.833382 1.27051 0.650048C1.45384 0.466715 1.68717 0.375048 1.97051 0.375048C2.25384 0.375048 2.48718 0.466715 2.67051 0.650048L6.57051 4.55005L10.4705 0.650049C10.6538 0.466716 10.8872 0.375049 11.1705 0.375049C11.4538 0.375049 11.6872 0.466716 11.8705 0.650049Z" fill="#212121"/>
</svg>
