<svg width="29" height="29" viewBox="0 0 29 29" fill="none" xmlns="http://www.w3.org/2000/svg">
<circle cx="14.4033" cy="14.8184" r="14" fill="white"/>
<circle cx="14.4033" cy="14.8184" r="14" fill="url(#paint0_linear_276_262)"/>
<path d="M15.2929 6.16366C15.9245 6.16124 16.5562 6.16759 17.1876 6.1827L17.3555 6.18876C17.5494 6.19569 17.7407 6.20434 17.9718 6.21473C18.8928 6.25801 19.5212 6.40342 20.0725 6.61721C20.6438 6.83707 21.125 7.13482 21.6063 7.61607C22.0463 8.0485 22.3869 8.57159 22.6043 9.14897C22.8181 9.70033 22.9635 10.3296 23.0068 11.2505C23.0171 11.4808 23.0258 11.6729 23.0327 11.8668L23.0379 12.0347C23.0533 12.6659 23.0599 13.2972 23.0578 13.9286L23.0587 14.5743V15.7081C23.0608 16.3398 23.0542 16.9714 23.0388 17.6029L23.0336 17.7708C23.0267 17.9647 23.018 18.1559 23.0076 18.387C22.9643 19.308 22.8172 19.9364 22.6043 20.4878C22.3876 21.0657 22.0469 21.5893 21.6063 22.0215C21.1735 22.4615 20.6501 22.802 20.0725 23.0195C19.5212 23.2333 18.8928 23.3787 17.9718 23.422C17.7407 23.4324 17.5494 23.441 17.3555 23.448L17.1876 23.4531C16.5562 23.4685 15.9246 23.4752 15.2929 23.4731L14.6472 23.4739H13.5142C12.8826 23.4761 12.2509 23.4694 11.6195 23.454L11.4516 23.4488C11.2461 23.4414 11.0407 23.4327 10.8353 23.4229C9.91436 23.3796 9.28596 23.2324 8.73374 23.0195C8.15614 22.8025 7.63296 22.4619 7.20084 22.0215C6.76031 21.589 6.41944 21.0656 6.20199 20.4878C5.98819 19.9364 5.84278 19.308 5.7995 18.387C5.78986 18.1817 5.78121 17.9762 5.77354 17.7708L5.76921 17.6029C5.75325 16.9714 5.74604 16.3398 5.74757 15.7081V13.9286C5.74515 13.2972 5.7515 12.6659 5.76661 12.0347L5.77267 11.8668C5.7796 11.6729 5.78825 11.4808 5.79864 11.2505C5.84192 10.3287 5.98733 9.70119 6.20112 9.14897C6.4187 8.57131 6.76024 8.04836 7.2017 7.61693C7.63353 7.17615 8.15638 6.83496 8.73374 6.61721C9.28596 6.40342 9.91349 6.25801 10.8353 6.21473L11.4516 6.18876L11.6195 6.18444C12.2507 6.16849 12.882 6.16127 13.5133 6.1628L15.2929 6.16366ZM14.4031 10.4914C13.8297 10.4833 13.2604 10.5893 12.7283 10.8031C12.1961 11.0169 11.7118 11.3344 11.3034 11.737C10.8951 12.1397 10.5708 12.6194 10.3495 13.1485C10.1281 13.6775 10.0141 14.2453 10.0141 14.8188C10.0141 15.3923 10.1281 15.96 10.3495 16.4891C10.5708 17.0181 10.8951 17.4979 11.3034 17.9006C11.7118 18.3032 12.1961 18.6207 12.7283 18.8345C13.2604 19.0483 13.8297 19.1542 14.4031 19.1461C15.5509 19.1461 16.6517 18.6902 17.4633 17.8786C18.275 17.0669 18.7309 15.9662 18.7309 14.8184C18.7309 13.6706 18.275 12.5698 17.4633 11.7582C16.6517 10.9465 15.5509 10.4914 14.4031 10.4914ZM14.4031 12.2226C14.7481 12.2162 15.0908 12.2786 15.4113 12.4062C15.7319 12.5338 16.0237 12.724 16.2699 12.9657C16.5161 13.2073 16.7117 13.4956 16.8452 13.8137C16.9788 14.1318 17.0476 14.4734 17.0476 14.8184C17.0477 15.1633 16.979 15.5049 16.8456 15.823C16.7122 16.1412 16.5167 16.4295 16.2706 16.6713C16.0244 16.913 15.7326 17.1033 15.4121 17.231C15.0916 17.3587 14.7489 17.4213 14.404 17.415C13.7153 17.415 13.0548 17.1415 12.5679 16.6545C12.0809 16.1675 11.8073 15.507 11.8073 14.8184C11.8073 14.1297 12.0809 13.4692 12.5679 12.9822C13.0548 12.4953 13.7153 12.2217 14.404 12.2217L14.4031 12.2226ZM18.9473 9.19311C18.6681 9.20429 18.404 9.32307 18.2104 9.52459C18.0168 9.72611 17.9086 9.99473 17.9086 10.2742C17.9086 10.5536 18.0168 10.8223 18.2104 11.0238C18.404 11.2253 18.6681 11.3441 18.9473 11.3553C19.2343 11.3553 19.5094 11.2413 19.7124 11.0384C19.9153 10.8355 20.0292 10.5603 20.0292 10.2733C20.0292 9.98637 19.9153 9.71118 19.7124 9.50827C19.5094 9.30537 19.2343 9.19138 18.9473 9.19138V9.19311Z" fill="url(#paint1_linear_276_262)"/>
<path d="M15.2929 6.16366C15.9245 6.16124 16.5562 6.16759 17.1876 6.1827L17.3555 6.18876C17.5494 6.19569 17.7407 6.20434 17.9718 6.21473C18.8928 6.25801 19.5212 6.40342 20.0725 6.61721C20.6438 6.83707 21.125 7.13482 21.6063 7.61607C22.0463 8.0485 22.3869 8.57159 22.6043 9.14897C22.8181 9.70033 22.9635 10.3296 23.0068 11.2505C23.0171 11.4808 23.0258 11.6729 23.0327 11.8668L23.0379 12.0347C23.0533 12.6659 23.0599 13.2972 23.0578 13.9286L23.0587 14.5743V15.7081C23.0608 16.3398 23.0542 16.9714 23.0388 17.6029L23.0336 17.7708C23.0267 17.9647 23.018 18.1559 23.0076 18.387C22.9643 19.308 22.8172 19.9364 22.6043 20.4878C22.3876 21.0657 22.0469 21.5893 21.6063 22.0215C21.1735 22.4615 20.6501 22.802 20.0725 23.0195C19.5212 23.2333 18.8928 23.3787 17.9718 23.422C17.7407 23.4324 17.5494 23.441 17.3555 23.448L17.1876 23.4531C16.5562 23.4685 15.9246 23.4752 15.2929 23.4731L14.6472 23.4739H13.5142C12.8826 23.4761 12.2509 23.4694 11.6195 23.454L11.4516 23.4488C11.2461 23.4414 11.0407 23.4327 10.8353 23.4229C9.91436 23.3796 9.28596 23.2324 8.73374 23.0195C8.15614 22.8025 7.63296 22.4619 7.20084 22.0215C6.76031 21.589 6.41944 21.0656 6.20199 20.4878C5.98819 19.9364 5.84278 19.308 5.7995 18.387C5.78986 18.1817 5.78121 17.9762 5.77354 17.7708L5.76921 17.6029C5.75325 16.9714 5.74604 16.3398 5.74757 15.7081V13.9286C5.74515 13.2972 5.7515 12.6659 5.76661 12.0347L5.77267 11.8668C5.7796 11.6729 5.78825 11.4808 5.79864 11.2505C5.84192 10.3287 5.98733 9.70119 6.20112 9.14897C6.4187 8.57131 6.76024 8.04836 7.2017 7.61693C7.63353 7.17615 8.15638 6.83496 8.73374 6.61721C9.28596 6.40342 9.91349 6.25801 10.8353 6.21473L11.4516 6.18876L11.6195 6.18444C12.2507 6.16849 12.882 6.16127 13.5133 6.1628L15.2929 6.16366ZM14.4031 10.4914C13.8297 10.4833 13.2604 10.5893 12.7283 10.8031C12.1961 11.0169 11.7118 11.3344 11.3034 11.737C10.8951 12.1397 10.5708 12.6194 10.3495 13.1485C10.1281 13.6775 10.0141 14.2453 10.0141 14.8188C10.0141 15.3923 10.1281 15.96 10.3495 16.4891C10.5708 17.0181 10.8951 17.4979 11.3034 17.9006C11.7118 18.3032 12.1961 18.6207 12.7283 18.8345C13.2604 19.0483 13.8297 19.1542 14.4031 19.1461C15.5509 19.1461 16.6517 18.6902 17.4633 17.8786C18.275 17.0669 18.7309 15.9662 18.7309 14.8184C18.7309 13.6706 18.275 12.5698 17.4633 11.7582C16.6517 10.9465 15.5509 10.4914 14.4031 10.4914ZM14.4031 12.2226C14.7481 12.2162 15.0908 12.2786 15.4113 12.4062C15.7319 12.5338 16.0237 12.724 16.2699 12.9657C16.5161 13.2073 16.7117 13.4956 16.8452 13.8137C16.9788 14.1318 17.0476 14.4734 17.0476 14.8184C17.0477 15.1633 16.979 15.5049 16.8456 15.823C16.7122 16.1412 16.5167 16.4295 16.2706 16.6713C16.0244 16.913 15.7326 17.1033 15.4121 17.231C15.0916 17.3587 14.7489 17.4213 14.404 17.415C13.7153 17.415 13.0548 17.1415 12.5679 16.6545C12.0809 16.1675 11.8073 15.507 11.8073 14.8184C11.8073 14.1297 12.0809 13.4692 12.5679 12.9822C13.0548 12.4953 13.7153 12.2217 14.404 12.2217L14.4031 12.2226ZM18.9473 9.19311C18.6681 9.20429 18.404 9.32307 18.2104 9.52459C18.0168 9.72611 17.9086 9.99473 17.9086 10.2742C17.9086 10.5536 18.0168 10.8223 18.2104 11.0238C18.404 11.2253 18.6681 11.3441 18.9473 11.3553C19.2343 11.3553 19.5094 11.2413 19.7124 11.0384C19.9153 10.8355 20.0292 10.5603 20.0292 10.2733C20.0292 9.98637 19.9153 9.71118 19.7124 9.50827C19.5094 9.30537 19.2343 9.19138 18.9473 9.19138V9.19311Z" fill="white"/>
<defs>
<linearGradient id="paint0_linear_276_262" x1="-0.579449" y1="28.8184" x2="28.4038" y2="0.81886" gradientUnits="userSpaceOnUse">
<stop stop-color="#FFC300"/>
<stop offset="0.484375" stop-color="#FF005F"/>
<stop offset="1" stop-color="#8400FF"/>
</linearGradient>
<linearGradient id="paint1_linear_276_262" x1="5.13944" y1="23.4744" x2="23.0591" y2="6.1626" gradientUnits="userSpaceOnUse">
<stop stop-color="#FFC300"/>
<stop offset="0.484375" stop-color="#FF005F"/>
<stop offset="1" stop-color="#8400FF"/>
</linearGradient>
</defs>
</svg>
