<svg width="29" height="29" viewBox="0 0 29 29" fill="none" xmlns="http://www.w3.org/2000/svg">
<circle cx="14.4033" cy="14.8184" r="14" fill="white"/>
<circle cx="14.4033" cy="14.8184" r="14" fill="url(#paint0_linear_276_259)"/>
<path d="M20.1044 8.96611L5.92917 14.2701C5.35874 14.5171 5.1658 15.0117 5.7913 15.2801L9.42786 16.4015L18.2206 11.1288C18.7007 10.7978 19.1922 10.886 18.7693 11.2502L11.2175 17.8847L10.9803 20.6924C11.2 21.1259 11.6023 21.128 11.8589 20.9125L13.9482 18.9943L17.5265 21.5942C18.3576 22.0716 18.8098 21.7635 18.9886 20.8885L21.3357 10.1051C21.5794 9.02801 21.1638 8.55344 20.1044 8.96611Z" fill="white"/>
<defs>
<linearGradient id="paint0_linear_276_259" x1="0.40332" y1="0.818359" x2="25.8359" y2="30.9829" gradientUnits="userSpaceOnUse">
<stop stop-color="#49B3FF"/>
<stop offset="1" stop-color="#005ECD"/>
</linearGradient>
</defs>
</svg>
