<svg width="30" height="29" viewBox="0 0 30 29" fill="none" xmlns="http://www.w3.org/2000/svg">
<circle cx="14.8589" cy="14.7483" r="14.1836" fill="white"/>
<circle cx="14.8589" cy="14.7483" r="14.1836" fill="url(#paint0_linear_1_653)"/>
<path fill-rule="evenodd" clip-rule="evenodd" d="M18.9175 6.50011C16.2446 5.90263 13.4728 5.90263 10.8 6.50011L10.512 6.56383C9.76011 6.73192 9.06958 7.10515 8.51707 7.64206C7.96457 8.17897 7.57172 8.85853 7.38217 9.60526C6.70464 12.275 6.70464 15.0717 7.38217 17.7415C7.56294 18.4537 7.92878 19.1054 8.44262 19.6305C8.95646 20.1557 9.60002 20.5357 10.3081 20.732L10.7031 23.0903C10.7157 23.1652 10.7482 23.2354 10.7971 23.2935C10.846 23.3515 10.9096 23.3954 10.9813 23.4206C11.0529 23.4458 11.13 23.4512 11.2045 23.4365C11.279 23.4217 11.3482 23.3873 11.4048 23.3367L13.725 21.2612C15.4667 21.3675 17.2146 21.2282 18.9175 20.8475L19.2064 20.7838C19.9582 20.6157 20.6487 20.2425 21.2012 19.7056C21.7537 19.1686 22.1466 18.4891 22.3361 17.7424C23.0136 15.0726 23.0136 12.2759 22.3361 9.60611C22.1465 8.85927 21.7536 8.17964 21.2009 7.64272C20.6482 7.1058 19.9575 6.73263 19.2055 6.56468L18.9175 6.50011ZM11.517 9.53644C11.3591 9.51346 11.1981 9.54524 11.0608 9.6265H11.0489C10.7303 9.8134 10.4431 10.0487 10.1985 10.3257C9.99457 10.561 9.88413 10.7989 9.85524 11.0283C9.83825 11.1642 9.85014 11.3018 9.89007 11.4318L9.90537 11.4403C10.1347 12.114 10.4338 12.7622 10.7991 13.3722C11.2701 14.229 11.8498 15.0214 12.5237 15.7297L12.5441 15.7586L12.5764 15.7824L12.5959 15.8054L12.6197 15.8257C13.3306 16.5017 14.1248 17.0841 14.9832 17.5588C15.9644 18.0932 16.56 18.3455 16.9176 18.4509V18.456C17.0221 18.4883 17.1173 18.5027 17.2133 18.5027C17.5179 18.4802 17.8062 18.3564 18.0323 18.151C18.3084 17.9063 18.542 17.6183 18.7238 17.298V17.2921C18.8946 16.9693 18.8368 16.6651 18.5904 16.4587C18.0956 16.0263 17.5604 15.6422 16.9924 15.3118C16.6118 15.1053 16.2253 15.2302 16.0689 15.4392L15.7351 15.8606C15.5634 16.0696 15.2525 16.0407 15.2525 16.0407L15.244 16.0458C12.9239 15.4536 12.3045 13.1046 12.3045 13.1046C12.3045 13.1046 12.2756 12.7852 12.4906 12.622L12.9086 12.2856C13.1091 12.1225 13.2484 11.7368 13.0335 11.3562C12.7052 10.7876 12.3219 10.2527 11.8891 9.75903C11.7947 9.64285 11.6623 9.56372 11.5153 9.53559L11.517 9.53644ZM15.4369 8.51527C15.3242 8.51527 15.2162 8.56002 15.1365 8.63969C15.0568 8.71935 15.0121 8.82739 15.0121 8.94005C15.0121 9.05271 15.0568 9.16075 15.1365 9.24042C15.2162 9.32008 15.3242 9.36483 15.4369 9.36483C16.5116 9.36483 17.4036 9.7157 18.1096 10.3886C18.4723 10.7564 18.7552 11.1922 18.9404 11.6697C19.1265 12.148 19.2115 12.6586 19.1894 13.17C19.187 13.2258 19.1957 13.2815 19.2149 13.3339C19.2341 13.3864 19.2634 13.4345 19.3012 13.4756C19.3775 13.5586 19.4837 13.6079 19.5963 13.6126C19.709 13.6174 19.8189 13.5772 19.9019 13.5008C19.9849 13.4245 20.0342 13.3184 20.0389 13.2057C20.0653 12.5766 19.9609 11.9488 19.7322 11.3621C19.5026 10.7727 19.1545 10.2366 18.7094 9.78706L18.7009 9.77857C17.825 8.94175 16.7163 8.51527 15.4369 8.51527ZM15.408 9.91195C15.2953 9.91195 15.1873 9.9567 15.1076 10.0364C15.0279 10.116 14.9832 10.2241 14.9832 10.3367C14.9832 10.4494 15.0279 10.5574 15.1076 10.6371C15.1873 10.7168 15.2953 10.7615 15.408 10.7615H15.4224C16.1972 10.8167 16.7613 11.075 17.1564 11.4989C17.5616 11.9356 17.7715 12.4785 17.7553 13.1496C17.7527 13.2623 17.795 13.3714 17.8728 13.4529C17.9506 13.5343 18.0577 13.5816 18.1703 13.5842C18.283 13.5868 18.3921 13.5445 18.4735 13.4667C18.555 13.3888 18.6023 13.2818 18.6049 13.1692C18.6253 12.2882 18.3415 11.5278 17.7791 10.9212V10.9195C17.2039 10.3027 16.4147 9.97652 15.4649 9.9128L15.4505 9.9111L15.408 9.91195ZM15.3918 11.335C15.335 11.3299 15.2777 11.3364 15.2234 11.354C15.1691 11.3717 15.119 11.4 15.0759 11.4375C15.0328 11.4749 14.9977 11.5206 14.9727 11.5719C14.9477 11.6232 14.9333 11.679 14.9303 11.736C14.9273 11.793 14.9359 11.85 14.9554 11.9036C14.975 11.9572 15.0051 12.0064 15.0441 12.0481C15.083 12.0898 15.13 12.1232 15.1821 12.1463C15.2343 12.1695 15.2906 12.1819 15.3477 12.1828C15.7028 12.2015 15.9296 12.3086 16.0723 12.4521C16.2159 12.5966 16.323 12.8285 16.3425 13.1913C16.3436 13.2483 16.3561 13.3045 16.3793 13.3565C16.4026 13.4086 16.4361 13.4554 16.4778 13.4943C16.5195 13.5331 16.5686 13.5632 16.6222 13.5826C16.6758 13.6021 16.7328 13.6106 16.7897 13.6075C16.8467 13.6045 16.9024 13.5901 16.9536 13.565C17.0049 13.54 17.0505 13.5049 17.0879 13.4619C17.1253 13.4188 17.1536 13.3687 17.1712 13.3145C17.1888 13.2602 17.1953 13.203 17.1904 13.1462C17.1632 12.6365 17.0035 12.1862 16.6764 11.8549C16.3476 11.5236 15.8999 11.3622 15.3918 11.335Z" fill="url(#paint1_linear_1_653)"/>
<path fill-rule="evenodd" clip-rule="evenodd" d="M18.9175 6.50011C16.2446 5.90263 13.4728 5.90263 10.8 6.50011L10.512 6.56383C9.76011 6.73192 9.06958 7.10515 8.51707 7.64206C7.96457 8.17897 7.57172 8.85853 7.38217 9.60526C6.70464 12.275 6.70464 15.0717 7.38217 17.7415C7.56294 18.4537 7.92878 19.1054 8.44262 19.6305C8.95646 20.1557 9.60002 20.5357 10.3081 20.732L10.7031 23.0903C10.7157 23.1652 10.7482 23.2354 10.7971 23.2935C10.846 23.3515 10.9096 23.3954 10.9813 23.4206C11.0529 23.4458 11.13 23.4512 11.2045 23.4365C11.279 23.4217 11.3482 23.3873 11.4048 23.3367L13.725 21.2612C15.4667 21.3675 17.2146 21.2282 18.9175 20.8475L19.2064 20.7838C19.9582 20.6157 20.6487 20.2425 21.2012 19.7056C21.7537 19.1686 22.1466 18.4891 22.3361 17.7424C23.0136 15.0726 23.0136 12.2759 22.3361 9.60611C22.1465 8.85927 21.7536 8.17964 21.2009 7.64272C20.6482 7.1058 19.9575 6.73263 19.2055 6.56468L18.9175 6.50011ZM11.517 9.53644C11.3591 9.51346 11.1981 9.54524 11.0608 9.6265H11.0489C10.7303 9.8134 10.4431 10.0487 10.1985 10.3257C9.99457 10.561 9.88413 10.7989 9.85524 11.0283C9.83825 11.1642 9.85014 11.3018 9.89007 11.4318L9.90537 11.4403C10.1347 12.114 10.4338 12.7622 10.7991 13.3722C11.2701 14.229 11.8498 15.0214 12.5237 15.7297L12.5441 15.7586L12.5764 15.7824L12.5959 15.8054L12.6197 15.8257C13.3306 16.5017 14.1248 17.0841 14.9832 17.5588C15.9644 18.0932 16.56 18.3455 16.9176 18.4509V18.456C17.0221 18.4883 17.1173 18.5027 17.2133 18.5027C17.5179 18.4802 17.8062 18.3564 18.0323 18.151C18.3084 17.9063 18.542 17.6183 18.7238 17.298V17.2921C18.8946 16.9693 18.8368 16.6651 18.5904 16.4587C18.0956 16.0263 17.5604 15.6422 16.9924 15.3118C16.6118 15.1053 16.2253 15.2302 16.0689 15.4392L15.7351 15.8606C15.5634 16.0696 15.2525 16.0407 15.2525 16.0407L15.244 16.0458C12.9239 15.4536 12.3045 13.1046 12.3045 13.1046C12.3045 13.1046 12.2756 12.7852 12.4906 12.622L12.9086 12.2856C13.1091 12.1225 13.2484 11.7368 13.0335 11.3562C12.7052 10.7876 12.3219 10.2527 11.8891 9.75903C11.7947 9.64285 11.6623 9.56372 11.5153 9.53559L11.517 9.53644ZM15.4369 8.51527C15.3242 8.51527 15.2162 8.56002 15.1365 8.63969C15.0568 8.71935 15.0121 8.82739 15.0121 8.94005C15.0121 9.05271 15.0568 9.16075 15.1365 9.24042C15.2162 9.32008 15.3242 9.36483 15.4369 9.36483C16.5116 9.36483 17.4036 9.7157 18.1096 10.3886C18.4723 10.7564 18.7552 11.1922 18.9404 11.6697C19.1265 12.148 19.2115 12.6586 19.1894 13.17C19.187 13.2258 19.1957 13.2815 19.2149 13.3339C19.2341 13.3864 19.2634 13.4345 19.3012 13.4756C19.3775 13.5586 19.4837 13.6079 19.5963 13.6126C19.709 13.6174 19.8189 13.5772 19.9019 13.5008C19.9849 13.4245 20.0342 13.3184 20.0389 13.2057C20.0653 12.5766 19.9609 11.9488 19.7322 11.3621C19.5026 10.7727 19.1545 10.2366 18.7094 9.78706L18.7009 9.77857C17.825 8.94175 16.7163 8.51527 15.4369 8.51527ZM15.408 9.91195C15.2953 9.91195 15.1873 9.9567 15.1076 10.0364C15.0279 10.116 14.9832 10.2241 14.9832 10.3367C14.9832 10.4494 15.0279 10.5574 15.1076 10.6371C15.1873 10.7168 15.2953 10.7615 15.408 10.7615H15.4224C16.1972 10.8167 16.7613 11.075 17.1564 11.4989C17.5616 11.9356 17.7715 12.4785 17.7553 13.1496C17.7527 13.2623 17.795 13.3714 17.8728 13.4529C17.9506 13.5343 18.0577 13.5816 18.1703 13.5842C18.283 13.5868 18.3921 13.5445 18.4735 13.4667C18.555 13.3888 18.6023 13.2818 18.6049 13.1692C18.6253 12.2882 18.3415 11.5278 17.7791 10.9212V10.9195C17.2039 10.3027 16.4147 9.97652 15.4649 9.9128L15.4505 9.9111L15.408 9.91195ZM15.3918 11.335C15.335 11.3299 15.2777 11.3364 15.2234 11.354C15.1691 11.3717 15.119 11.4 15.0759 11.4375C15.0328 11.4749 14.9977 11.5206 14.9727 11.5719C14.9477 11.6232 14.9333 11.679 14.9303 11.736C14.9273 11.793 14.9359 11.85 14.9554 11.9036C14.975 11.9572 15.0051 12.0064 15.0441 12.0481C15.083 12.0898 15.13 12.1232 15.1821 12.1463C15.2343 12.1695 15.2906 12.1819 15.3477 12.1828C15.7028 12.2015 15.9296 12.3086 16.0723 12.4521C16.2159 12.5966 16.323 12.8285 16.3425 13.1913C16.3436 13.2483 16.3561 13.3045 16.3793 13.3565C16.4026 13.4086 16.4361 13.4554 16.4778 13.4943C16.5195 13.5331 16.5686 13.5632 16.6222 13.5826C16.6758 13.6021 16.7328 13.6106 16.7897 13.6075C16.8467 13.6045 16.9024 13.5901 16.9536 13.565C17.0049 13.54 17.0505 13.5049 17.0879 13.4619C17.1253 13.4188 17.1536 13.3687 17.1712 13.3145C17.1888 13.2602 17.1953 13.203 17.1904 13.1462C17.1632 12.6365 17.0035 12.1862 16.6764 11.8549C16.3476 11.5236 15.8999 11.3622 15.3918 11.335Z" fill="white"/>
<defs>
<linearGradient id="paint0_linear_1_653" x1="0.675293" y1="0.564697" x2="26.4414" y2="31.1249" gradientUnits="userSpaceOnUse">
<stop stop-color="#8F00FF"/>
<stop offset="1" stop-color="#4C0088"/>
</linearGradient>
<linearGradient id="paint1_linear_1_653" x1="6.87402" y1="6.052" x2="22.8442" y2="23.4446" gradientUnits="userSpaceOnUse">
<stop stop-color="#8F00FF"/>
<stop offset="1" stop-color="#4C0088"/>
</linearGradient>
</defs>
</svg>
