<svg width="19" height="19" viewBox="0 0 19 19" fill="none" xmlns="http://www.w3.org/2000/svg">
<path d="M17.3494 10.4758C18.0311 10.4758 18.5837 9.92318 18.5837 9.24146C18.5837 8.55973 18.0311 8.00709 17.3494 8.00709L17.3494 10.4758ZM0.511448 8.36862C0.0293961 8.85067 0.029396 9.63223 0.511448 10.1143L8.36692 17.9698C8.84897 18.4518 9.63053 18.4518 10.1126 17.9698C10.5946 17.4877 10.5946 16.7061 10.1126 16.2241L3.12994 9.24145L10.1126 2.25881C10.5946 1.77676 10.5946 0.995203 10.1126 0.513152C9.63053 0.0311015 8.84897 0.0311014 8.36692 0.513152L0.511448 8.36862ZM17.3494 8.00709L1.38428 8.00709L1.38428 10.4758L17.3494 10.4758L17.3494 8.00709Z" fill="white"/>
</svg>
