<svg width="19" height="19" viewBox="0 0 19 19" fill="none" xmlns="http://www.w3.org/2000/svg">
<path d="M1.65015 7.92628C0.968424 7.92628 0.415778 8.47892 0.415778 9.16064C0.415778 9.84237 0.968424 10.395 1.65015 10.395L1.65015 7.92628ZM18.4881 10.0335C18.9701 9.55142 18.9701 8.76987 18.4881 8.28781L10.6326 0.432343C10.1505 -0.0497084 9.36898 -0.0497084 8.88693 0.432343C8.40488 0.914393 8.40488 1.69595 8.88693 2.178L15.8696 9.16064L8.88693 16.1433C8.40488 16.6253 8.40488 17.4069 8.88693 17.8889C9.36898 18.371 10.1505 18.371 10.6326 17.8889L18.4881 10.0335ZM1.65015 10.395L17.6152 10.395V7.92628L1.65015 7.92628L1.65015 10.395Z" fill="white"/>
</svg>
